<?xml version="1.0"?>
<svg width="768" height="322.499991" xmlns="http://www.w3.org/2000/svg" xmlns:svg="http://www.w3.org/2000/svg" preserveAspectRatio="xMidYMid meet" version="1.0">
 <g class="layer">
  <title>Layer 1</title>
  <path d="m482.42,14c2.6,0 5.2,0 7.8,0c5.67,-0.01 11.33,-0.02 16.99,-0.02c3.55,0 7.09,0 10.64,0c9.85,-0.01 19.69,-0.02 29.54,-0.02l9.54,0c10.24,0 20.48,-0.01 30.73,-0.03c10.55,-0.01 21.11,-0.02 31.66,-0.02c5.91,0 11.82,0 17.73,-0.01c5.04,-0.01 10.06,-0.01 15.09,-0.01c2.56,0 5.12,0 7.68,0c17.68,-0.05 34.29,0.55 50.04,9.52c6.19,3.67 12.11,7.86 17.49,12.64l1.62,1.44c7.19,6.64 12.46,15.11 16.48,23.97c0.46,1 0.93,1.99 1.42,2.98c6.6,14.15 5.99,30.75 5.89,46.02c-0.01,1.5 -0.01,3 -0.01,4.5c-0.02,3.27 -0.03,6.53 -0.05,9.8c-0.02,5.08 -0.04,10.15 -0.06,15.23c-0.03,9.65 -0.07,19.31 -0.12,28.96c-0.04,5.8 -0.06,11.59 -0.09,17.39c-0.01,4.17 -0.04,8.34 -0.06,12.52c-0.01,2.45 -0.02,4.9 -0.03,7.36c-0.08,22.33 -1.07,43.48 -12.43,63.31c-3.51,5.89 -7.82,10.95 -12.56,15.87l-0.97,1.08c-7.96,8.59 -19.54,14.52 -30.55,18.06c-11.93,3.52 -24.32,4.05 -36.68,4.01c-1.32,0 -2.63,0 -3.95,0.01c-5.81,0 -11.56,-0.24 -17.35,-0.64l0,-1.13l-1.56,0.56c-2.95,0.83 -5.91,0.72 -8.96,0.7l-2,0.01c-1.83,0 -3.65,0 -5.48,-0.01c-1.97,0 -3.95,0 -5.92,0.01c-3.86,0 -7.73,0 -11.59,-0.01c-4.51,0 -9.02,0 -13.52,0c-8.05,0 -16.1,-0.01 -24.15,-0.02c-7.79,-0.01 -15.59,-0.01 -23.38,-0.01l-2.9,0c-8.89,0 -17.78,0 -26.68,-0.01c-3.13,0 -6.26,0 -9.39,0c-3.84,0 -7.66,0 -11.49,-0.01c-1.95,0 -3.9,0 -5.85,0c-7.32,0 -14.62,-0.02 -21.93,-0.53c-2.5,-0.15 -4.96,-0.11 -7.47,-0.04c-13.91,0.14 -25.95,-3.72 -38.38,-9.64l0,-1.13l-0.98,-0.21c-1.28,-0.36 -2.35,-0.85 -3.52,-1.48l0,-1.13l-1.24,-0.43c-1.69,-0.74 -2.89,-1.62 -4.32,-2.8l-1.48,-1.22l-1.4,-1.18l-1.1,-0.88c-2.56,-2.1 -4.67,-4.46 -6.78,-6.99l-1.22,-1.41c-8.97,-10.59 -13.96,-23.13 -16.63,-36.63c-1.46,-8.7 -1.38,-17.46 -1.37,-26.24l-0.01,-3.92c-0.01,-3.53 -0.01,-7.07 -0.01,-10.6l0,-6.64c0,-7.34 -0.01,-14.68 -0.01,-22.01l0,-2.39c0,-6.39 0,-12.78 -0.01,-19.17c-0.01,-6.59 -0.01,-13.17 -0.01,-19.76c0,-3.69 0,-7.37 -0.01,-11.06c0,-3.47 0,-6.94 0,-10.42c0,-1.26 0,-2.53 0,-3.79c-0.05,-19.47 2.63,-36.6 11.96,-53.93c1.65,-2.8 3.57,-5.36 5.63,-7.88l0.8,-1c9.14,-11.3 19.95,-19.22 33.46,-24.47c16.96,-6.31 35.68,-5.01 53.47,-5.02" fill="#ffa726" fill-rule="nonzero" id="svg_1" transform="matrix(1 0 0 1 0 0) matrix(1 0 0 1 0 0)"/>
  <path d="m167.92,16.91c1.11,0.55 2.21,1.11 3.31,1.69c1.12,0.56 2.25,1.13 3.37,1.69l0,1.12l1.02,0.22c1.24,0.35 1.24,0.35 2.92,1.47l0,1.13l1.69,0l0,1.12l0.99,0.44c3.76,2.06 6.88,6.1 9.14,9.69c3.76,6.87 6.6,14.07 9.24,21.43c0.96,2.65 2.03,5.25 3.2,7.81c0.52,1.18 0.93,2.36 1.32,3.59c0.66,2.08 1.46,4.07 2.32,6.08c1.01,2.4 1.8,4.74 2.5,7.25c0.53,1.39 1.09,2.76 1.65,4.14c1.32,3.28 2.48,6.62 3.64,9.96c1.48,4.25 3.02,8.42 4.79,12.56c0.73,1.78 1.33,3.59 1.92,5.42c0.45,1.35 1.03,2.64 1.61,3.94c0.6,1.48 1.09,2.99 1.59,4.51c0.82,2.5 1.75,4.9 2.81,7.31c0.38,1.04 0.76,2.07 1.12,3.1c1.11,3.07 2.37,6.03 3.7,9.01c0.8,1.95 1.36,3.88 1.93,5.91c0.4,0.92 0.8,1.84 1.21,2.77c0.61,1.49 1.11,3.01 1.61,4.55c0.82,2.5 1.76,4.89 2.81,7.31c0.37,1.01 0.74,2.02 1.09,3.03c0.85,2.37 1.81,4.65 2.86,6.94c0.6,1.39 1.11,2.81 1.61,4.24c0.81,2.27 1.73,4.42 2.76,6.59c1.7,3.64 3.18,7.35 4.6,11.11c0.73,1.91 1.46,3.81 2.19,5.71l0.45,1.17c1.48,3.84 3.04,7.64 4.6,11.45c1.87,4.55 3.67,9.12 5.35,13.75c1.4,3.86 2.89,7.68 4.39,11.51l0.79,1.98c1.32,3.36 2.65,6.71 3.99,10.06c0.66,1.67 1.33,3.33 1.99,5c0.32,0.8 0.64,1.6 0.96,2.4c3.11,7.72 5.94,15.29 4.83,23.76c-1.15,5.83 -3.56,11.23 -7.45,15.73c-4.05,4.04 -8.75,6.31 -14.18,7.98c-6.07,1.25 -12.14,0.81 -18.01,-1.13c-4.56,-1.9 -8.56,-4.73 -11.82,-8.44c-3.65,-4.88 -5.75,-10.27 -7.92,-15.9c-0.33,-0.85 -0.66,-1.7 -1,-2.55c-0.66,-1.67 -1.31,-3.35 -1.96,-5.02c-0.75,-1.94 -1.52,-3.87 -2.3,-5.79c-1.55,-3.83 -2.98,-7.7 -4.31,-11.62l-1.15,-3.33c-1.02,-2.95 -1.02,-2.95 -1.5,-4.35c-0.37,-1.04 -0.74,-2.08 -1.11,-3.12l-0.59,-1.66c-0.57,-1.28 -0.57,-1.28 -1.58,-1.89c-1.86,-0.68 -3.63,-0.65 -5.59,-0.63l-1.29,-0.01c-1.44,0 -2.88,0.01 -4.32,0.01l-3.08,0c-2.81,-0.01 -5.61,0 -8.41,0c-2.93,0.01 -5.87,0.01 -8.8,0.01c-4.94,0 -9.87,0 -14.81,0.01c-5.69,0.01 -11.38,0.01 -17.07,0.01c-6.07,0 -12.14,0 -18.21,0.01c-1.74,0 -3.49,0 -5.23,0c-2.75,0 -5.5,0.01 -8.25,0.01c-1.01,0 -2.01,0 -3.01,0c-4.54,0 -9.07,0.04 -13.61,0.25l-1.87,0.08l-1.5,0.32c-1.35,1.37 -1.77,2.67 -2.25,4.5c-0.29,0.73 -0.58,1.45 -0.88,2.17c-0.29,0.75 -0.57,1.5 -0.85,2.25l-0.47,1.25c-0.33,0.88 -0.66,1.76 -0.98,2.64c-0.52,1.39 -1.05,2.78 -1.57,4.17c-1.49,3.95 -2.97,7.91 -4.44,11.87c-4.72,12.74 -4.72,12.74 -7.59,18.89l-0.58,1.24c-2.33,4.82 -5.25,8.3 -9.66,11.35c-4.5,2.74 -9.36,4.57 -14.64,4.96c-5.95,0.06 -11.53,-0.96 -16.87,-3.66c-4.13,-2.45 -7.3,-5.43 -9.86,-9.49c-2.56,-4.75 -3.73,-9.69 -3.94,-15.06c0.1,-3.22 0.58,-6.06 1.47,-9.15l0.38,-1.33c1.26,-4.35 2.83,-8.57 4.47,-12.78c0.7,-1.81 1.39,-3.62 2.09,-5.43c0.35,-0.92 0.7,-1.84 1.06,-2.76c1.57,-4.1 3.09,-8.22 4.6,-12.35l0.74,-2.04l1.14,-3.12c12.67,-34.71 12.67,-34.71 19.4,-51.69c2.62,-6.61 5.07,-13.28 7.53,-19.95l0.63,-1.69c2.13,-5.78 4.25,-11.56 6.28,-17.37c1.18,-3.36 2.42,-6.7 3.68,-10.03l0.66,-1.74c0.94,-2.51 1.88,-5.01 2.83,-7.51c1.37,-3.62 2.69,-7.25 3.97,-10.91c1.36,-3.9 2.83,-7.76 4.33,-11.61c2.96,-7.64 5.77,-15.33 8.56,-23.03c1.81,-5 3.68,-9.96 5.68,-14.88c0.83,-2.07 1.58,-4.14 2.33,-6.24c1.73,-4.7 3.87,-9.14 6.26,-13.55l0.9,-1.68c3.74,-6.38 9.6,-12.05 15.98,-15.76c13.63,-7.62 31.05,-10 45.67,-3.38m-19.77,64.73c-1.68,1.93 -2.44,4.05 -3.24,6.44l-0.43,1.25c-0.47,1.37 -0.94,2.75 -1.4,4.13l-0.51,1.51c-2.23,6.57 -2.23,6.57 -4.28,13.2c-0.61,2.02 -1.29,4.01 -2.05,5.98c-1.07,2.83 -2.03,5.69 -3.01,8.55l-0.67,1.92c-0.93,2.72 -1.87,5.44 -2.77,8.18c-0.7,2.11 -1.51,4.16 -2.36,6.22c-1.5,3.64 -2.76,7.34 -3.98,11.09c-1.03,3.12 -2.17,6.19 -3.45,9.21c-1.54,3.68 -2.84,7.38 -3.98,11.21c-0.52,1.72 -1.08,3.41 -1.64,5.11l67.54,0c-0.74,-3.34 -1.47,-6.28 -2.7,-9.4l-0.47,-1.22c-0.33,-0.86 -0.66,-1.71 -0.99,-2.57c-0.9,-2.31 -1.78,-4.63 -2.66,-6.95l-0.55,-1.44c-2.69,-7.05 -5.22,-14.16 -7.76,-21.26c-0.79,-2.21 -1.6,-4.42 -2.41,-6.62c-2.35,-6.34 -4.53,-12.73 -6.67,-19.14l-0.43,-1.32c-1.46,-4.37 -2.9,-8.75 -4.32,-13.13l-0.62,-1.9c-0.37,-1.14 -0.73,-2.29 -1.1,-3.44l-0.49,-1.51l-0.42,-1.3c-0.54,-1.22 -1.19,-1.92 -2.18,-2.8" fill="#64b5f6" fill-rule="nonzero" id="svg_2"/>
  <path d="m484.38,14.05c2.58,0.01 5.17,0.02 7.76,0.02c5.04,0 10.08,0.01 15.12,0.02c-1.85,0.95 -3.7,1.66 -5.66,2.36c-8.76,3.36 -16.28,9.83 -23.05,16.22l-1.16,1.1c-7.76,7.51 -13.66,16.36 -18.53,25.92l-11.82,0l-1.13,2.25c-2.57,4.06 -5.53,7.92 -9.01,11.26l-1.69,0.56l0,1.13c-1.77,1.44 -3.72,2.67 -5.62,3.93c-0.37,0.26 -0.73,0.51 -1.11,0.77c-5.65,3.79 -11.98,5.81 -18.59,7.12c-0.48,8.22 -0.64,16.42 -0.6,24.66c0,1.11 0,2.22 0,3.33c0.01,2.68 0.02,5.35 0.03,8.03l1.22,0.02c3.76,0.05 7.53,0.11 11.3,0.17c1.94,0.03 3.88,0.06 5.82,0.09c2.22,0.03 4.45,0.07 6.67,0.11l2.12,0.02l1.95,0.04l1.72,0.02l1.29,0.09l0.56,0.57c0.05,0.95 0.07,1.9 0.07,2.85l0,1.89l0,2.1l0,2.21c-0.01,2.02 -0.01,4.05 -0.02,6.08c0,1.29 0,2.58 0,3.87c-0.02,21.25 -0.16,42.5 -0.3,63.75c-0.04,6.3 -0.08,12.61 -0.12,18.91c-0.06,9.83 -0.13,19.66 -0.19,29.49l51.22,0l0.56,-94.57l50.1,0l0.56,21.95c1.3,12.04 1.3,12.04 4.5,23.65l0.72,2.06c2.97,8.33 7,16.3 12.79,23.06l1.13,1.33l0,1.13l1.69,0.56c0.95,0.96 0.95,0.96 1.93,2.14c1.09,1.3 2.16,2.52 3.38,3.7l0.88,0.91l0,1.13l0.98,0.46c1.3,0.68 2.41,1.4 3.52,2.36l0,1.12l1.34,0.53c1.47,0.6 1.47,0.6 2.6,1.16l0,1.13l1.69,0l0,1.12l1.27,0.18c1.54,0.38 1.54,0.38 2.53,1.17c1.59,1.14 3.17,1.67 5.03,2.31l1.06,0.37c1.02,0.35 2.04,0.69 3.06,1.04l1.42,0.49c15.04,5.18 31.88,6.2 47.55,3.45c12.41,-2.45 23.51,-7.75 33.13,-15.97c3.63,-3.18 6.72,-6.66 9.65,-10.49c0.83,0.69 0.83,0.69 1.68,1.69c1.64,9.8 -1.45,22.53 -4.82,31.7c-1.8,4.72 -3.88,8.76 -7,12.77l-2.11,3.02c-6.87,9.34 -15.51,16.79 -26.03,21.74c-6.68,2.91 -12.85,4.68 -20.16,4.64l-2,0.01c-1.83,0 -3.65,0 -5.48,-0.01c-1.97,0 -3.94,0 -5.91,0.01c-3.87,0 -7.73,0 -11.59,-0.01c-4.5,0 -9.01,0 -13.51,0c-8.05,0 -16.1,-0.01 -24.14,-0.02c-7.79,-0.01 -15.58,-0.01 -23.37,-0.01l-2.9,0c-8.89,0 -17.78,0 -26.67,-0.01c-3.13,0 -6.26,0 -9.39,0c-3.83,0 -7.66,0 -11.48,-0.01c-1.95,0 -3.9,0 -5.85,0c-7.32,0 -14.61,-0.02 -21.92,-0.53c-2.49,-0.15 -4.96,-0.11 -7.47,-0.04c-13.91,0.14 -25.95,-3.72 -38.38,-9.64l0,-1.13l-0.98,-0.21c-1.28,-0.36 -2.35,-0.85 -3.52,-1.48l0,-1.13l-1.24,-0.43c-1.69,-0.74 -2.89,-1.62 -4.32,-2.8l-1.48,-1.22l-1.4,-1.18l-1.1,-0.88c-2.56,-2.1 -4.67,-4.46 -6.78,-6.99l-1.22,-1.41c-8.97,-10.59 -13.96,-23.13 -16.63,-36.63c-1.46,-8.7 -1.38,-17.46 -1.37,-26.24l-0.01,-3.92c-0.01,-3.53 -0.01,-7.07 -0.01,-10.6l0,-6.64c0,-7.34 -0.01,-14.67 -0.01,-22.01l0,-2.39c0,-6.39 0,-12.78 -0.01,-19.17c-0.01,-6.59 -0.01,-13.17 -0.01,-19.76c0,-3.69 0,-7.37 -0.01,-11.06c0,-3.47 0,-6.94 0,-10.42c0,-1.26 0,-2.53 0,-3.79c-0.05,-19.47 2.63,-36.6 11.96,-53.93c1.65,-2.8 3.57,-5.36 5.63,-7.88l0.8,-1c9.14,-11.3 19.95,-19.22 33.46,-24.47c17.54,-6.52 37.04,-5.01 55.43,-4.97" fill="#64b5f6" fill-rule="nonzero" id="svg_3" transform="matrix(1 0 0 1 0 0)"/>
  <path d="m659.12,63.06c1.17,0.56 2.33,1.12 3.5,1.69l1.73,0.85c6.65,3.43 12.58,8.07 17.97,13.22l1.27,1.17c3.73,3.53 6.59,7.53 9.42,11.78l1.1,1.59c6.26,9.82 8.27,21.89 9.03,33.31c0.07,2.12 0.09,4.24 0.09,6.36l0,1.81c0,1.95 0.01,3.89 0.01,5.84l0,4.11c0.01,2.86 0.01,5.73 0.01,8.59c0,3.65 0.01,7.3 0.02,10.94c0,2.83 0,5.66 0,8.48c0,1.34 0,2.69 0.01,4.03c0.03,10.31 -0.45,19.86 -3.51,29.77l-0.34,1.13c-3.98,12.98 -11.74,25 -21.62,34.33c-9.62,8.62 -20.92,14.39 -33.52,17.17c-16.13,3.25 -34.2,2.15 -49.78,-3.1c-2.12,-0.84 -4.15,-1.79 -6.19,-2.81c-0.94,-0.38 -1.88,-0.75 -2.82,-1.13c-0.81,-0.39 -1.62,-0.78 -2.43,-1.19l-1.18,-0.61l-0.89,-0.45l0,-1.12l-1.69,0l0,-1.13l-1.24,-0.44c-4.55,-1.99 -8.07,-5.89 -11.14,-9.69c-1.87,-2.29 -1.87,-2.29 -3.91,-4.43c-1.71,-1.77 -3.11,-3.71 -4.54,-5.7l-1.07,-1.5c-4.12,-5.91 -6.91,-12.2 -9.34,-18.95l-0.46,-1.25c-0.35,-1.01 -0.65,-2.04 -0.95,-3.07l0.57,-1.12l-1.13,-0.57c-0.33,-1.3 -0.62,-2.61 -0.84,-3.94l-0.41,-2.18c-1.17,-7.36 -1.74,-14.54 -1.67,-21.99c0.01,-0.92 0.01,-1.84 0.02,-2.76c0.01,-2.62 0.04,-5.24 0.07,-7.85c0.01,-1.26 0.02,-2.52 0.04,-3.77c0.04,-4.3 0.1,-8.6 0.16,-12.9c0.02,-1.42 0.04,-2.85 0.05,-4.28c0.28,-21.31 0.28,-21.31 3,-30.6l0.45,-1.57c1.21,-4.13 2.74,-7.92 4.76,-11.73l0.79,-1.58c5.92,-11.52 15.49,-20.65 26.23,-27.69c23.56,-14.97 55.04,-16.75 80.37,-5.07" fill="#fefefe" fill-rule="nonzero" id="svg_4"/>
  <path d="m167.92,16.91c1.11,0.55 2.21,1.11 3.31,1.69c1.12,0.56 2.25,1.13 3.37,1.69l0,1.12l1.02,0.22c1.24,0.35 1.24,0.35 2.92,1.47l0,1.13l1.69,0l0,1.12l0.99,0.44c3.76,2.06 6.88,6.1 9.14,9.69c3.76,6.87 6.6,14.07 9.24,21.43c0.96,2.65 2.03,5.25 3.2,7.81c0.52,1.18 0.93,2.36 1.32,3.59c0.66,2.08 1.46,4.07 2.32,6.08c1.01,2.4 1.8,4.74 2.5,7.25c0.53,1.39 1.09,2.76 1.65,4.14c1.32,3.28 2.48,6.62 3.64,9.96c1.48,4.25 3.02,8.42 4.79,12.56c0.73,1.78 1.33,3.59 1.92,5.42c0.45,1.35 1.03,2.64 1.61,3.94c0.6,1.48 1.09,2.99 1.59,4.51c0.82,2.5 1.75,4.9 2.81,7.31c0.38,1.04 0.76,2.07 1.12,3.1c1.11,3.07 2.37,6.03 3.7,9.01c0.8,1.95 1.36,3.88 1.93,5.91c0.4,0.92 0.8,1.84 1.21,2.77c0.61,1.49 1.11,3.01 1.61,4.55c0.82,2.5 1.76,4.89 2.81,7.31c0.37,1.01 0.74,2.02 1.09,3.03c0.87,2.43 1.87,4.8 3,7.12c0.42,1.11 0.42,1.11 0.42,3.36l-61.92,0l-7.88,-21.39l-2.67,-7.07c-2.08,-5.52 -4.02,-11.08 -5.92,-16.66c-1.5,-4.38 -3.05,-8.75 -4.64,-13.1c-1.9,-5.23 -3.7,-10.48 -5.45,-15.76l-0.36,-1.09c-1.15,-3.46 -2.29,-6.92 -3.42,-10.39l-0.47,-1.45c-0.28,-0.85 -0.55,-1.7 -0.82,-2.56c-0.54,-1.65 -0.9,-2.72 -2.14,-3.97c-1.56,2.99 -2.86,5.93 -3.94,9.12l-0.44,1.25c-1.25,3.65 -2.4,7.33 -3.5,11.02c-0.39,1.28 -0.77,2.56 -1.16,3.84l-0.52,1.7c-0.54,1.67 -1.14,3.31 -1.77,4.95c-1.06,2.85 -2.03,5.74 -3.03,8.62l-0.66,1.92c-0.94,2.72 -1.88,5.44 -2.77,8.18c-0.7,2.11 -1.52,4.16 -2.37,6.22c-1.49,3.64 -2.76,7.34 -3.98,11.09c-1.02,3.12 -2.17,6.19 -3.44,9.21c-1.55,3.68 -2.82,7.37 -3.93,11.21c-0.58,1.74 -0.58,1.74 -2.26,5.11l-60.8,-0.56c1.9,-6.33 1.9,-6.33 2.71,-8.49l0.55,-1.48l0.57,-1.54l0.61,-1.65c0.64,-1.72 1.29,-3.45 1.93,-5.17c0.84,-2.27 1.69,-4.53 2.53,-6.79l0.62,-1.67c1.36,-3.68 2.69,-7.38 3.99,-11.09c1.17,-3.35 2.41,-6.68 3.66,-10l0.66,-1.74c0.94,-2.51 1.88,-5.01 2.83,-7.51c1.37,-3.62 2.69,-7.25 3.97,-10.91c1.36,-3.9 2.83,-7.76 4.33,-11.61c2.96,-7.64 5.77,-15.33 8.56,-23.03c1.81,-5 3.68,-9.96 5.68,-14.88c0.83,-2.07 1.58,-4.14 2.33,-6.24c1.73,-4.7 3.87,-9.14 6.26,-13.55l0.9,-1.68c3.74,-6.38 9.6,-12.05 15.98,-15.76c13.63,-7.62 31.05,-10 45.67,-3.38m126.02,72.47l1.31,0.01l1.52,-0.01l1.65,0.01l1.75,0c1.91,0 3.82,0.01 5.73,0.02l3.97,0c3.48,0.01 6.97,0.02 10.45,0.04c3.56,0 7.11,0.01 10.66,0.01c6.98,0.02 13.95,0.04 20.93,0.06l0,1.12l1.13,0c0,23.51 0.01,47.02 0.03,70.52c0,7.82 0,15.64 0.01,23.46c0,8.05 0.01,16.1 0.01,24.16c0,4.51 0,9.02 0,13.52c0.01,10.26 0.01,20.51 -0.05,30.77c0,1.25 -0.01,2.5 -0.01,3.75c-0.01,3.11 -0.03,6.21 -0.08,9.31c-0.02,0.85 -0.02,1.69 -0.03,2.54c-0.02,4.54 -0.54,8.71 -1.72,13.08l-0.34,1.25c-1.44,4.89 -4.18,9.1 -7.59,12.87c-1.68,1.52 -3.42,2.74 -5.33,3.95l-0.98,0.66c-2.83,1.81 -5.63,3.31 -9.02,3.64c-1.6,0.04 -3.18,0.03 -4.77,0l-1.63,-0.01c-4.88,-0.06 -8.7,-0.58 -13.04,-2.84l-1.18,-0.59c-4.1,-2.09 -7.32,-4.78 -10.01,-8.52c-4.77,-7.84 -6.45,-15.66 -6.76,-24.77c-0.09,-5.09 -0.07,-10.17 -0.07,-15.25c0,-2.07 0,-4.14 0,-6.2c0,-4.04 0,-8.07 0,-12.11c0,-3.28 0,-6.56 0,-9.85l0,-4.27c0,-8.91 0,-17.82 0,-26.73c0,-7.64 0,-15.27 0,-22.91c0,-9.82 0,-19.66 0,-29.49l0,-1.41c0,-3.28 0,-6.56 0,-9.83c0,-4 0,-7.99 0,-11.99c0,-2.03 0,-4.07 0,-6.1c0,-2.21 0,-4.43 0,-6.64l0,-1.93c0.01,-3.02 0.07,-6.02 0.25,-9.04l0.1,-1.66l0.29,-1.33c1.68,-1.13 1.68,-1.13 2.82,-1.27" fill="#ffffff" fill-rule="nonzero" id="svg_5"/>
  <path d="m455.24,59.11l1.23,0.01c1.33,0.01 2.66,0.03 3.98,0.05l2.78,0.04c1.94,0.02 3.87,0.05 5.81,0.08c2.48,0.04 4.97,0.07 7.45,0.1c1.91,0.03 3.82,0.05 5.73,0.08c0.92,0.01 1.84,0.03 2.76,0.04c1.27,0.01 2.55,0.03 3.82,0.05l2.2,0.03l1.63,0.1l0.56,0.56c0.06,1.04 0.07,2.07 0.07,3.11l0.01,2.06l-0.01,2.29l0.01,2.41c0,2.22 0,4.43 0,6.65c-0.01,2.39 0,4.78 0,7.17c0,4.68 0,9.36 0,14.04c0,3.81 0,7.61 0,11.42l0,4.92c0,10.31 0,20.61 -0.01,30.91c0,8.86 0,17.71 0.01,26.56c0,11.35 0,22.71 0,34.07l0,1.63c0,3.8 0,7.6 0,11.4c0,4.64 0,9.27 0,13.9c0,2.36 0,4.72 0,7.09c0,2.16 0,4.32 -0.01,6.48c0,0.78 0,1.57 0.01,2.35c0,1.07 0,2.13 -0.01,3.19l0,1.79l-0.07,1.32l-0.56,0.56c-1.49,0.06 -2.97,0.07 -4.47,0.07l-1.41,0c-1.56,0.01 -3.11,0.01 -4.67,0l-3.23,0c-2.26,0.01 -4.53,0 -6.79,0c-2.9,0 -5.8,0 -8.7,0c-2.23,0.01 -4.46,0.01 -6.69,0c-1.07,0 -2.13,0 -3.21,0c-1.49,0.01 -2.99,0 -4.49,0l-1.33,0c-2.15,0 -4.15,-0.11 -6.23,-0.63c-0.45,-2.34 -0.63,-4.53 -0.61,-6.9l0.01,-2.11l0.02,-2.3c0.01,-0.81 0.01,-1.63 0.02,-2.44c0.01,-1.76 0.02,-3.51 0.04,-5.27c0.02,-2.82 0.04,-5.65 0.06,-8.47c0.03,-4.52 0.07,-9.03 0.1,-13.55c0.08,-10.35 0.16,-20.71 0.24,-31.07c0.14,-19.68 0.15,-39.36 0.12,-59.04l-9.67,-0.15c-4.58,-0.07 -4.58,-0.07 -9.16,-0.14c-2.06,-0.03 -4.12,-0.06 -6.19,-0.1l-2.09,-0.03l-1.97,-0.03l-1.72,-0.03l-1.29,-0.09l-0.56,-0.56c-0.06,-1.65 -0.08,-3.28 -0.08,-4.93l0,-1.55c0,-1.08 0,-2.17 0.01,-3.25c0,-1.62 0,-3.24 -0.01,-4.86c0,-7.16 0.24,-14.28 0.64,-21.43c1.67,-0.57 3.34,-1.12 5.03,-1.59c6.63,-1.87 12.54,-4.76 18.06,-8.89c1.12,-0.78 1.12,-0.78 2.8,-1.34l0,-1.13c0.64,-0.58 1.3,-1.13 1.97,-1.65c3.23,-2.74 5.61,-6.15 7.81,-9.73c0.67,-1.08 0.67,-1.08 2.05,-2.69c2.74,-0.58 5.4,-0.62 8.2,-0.58" fill="#fefefe" fill-rule="nonzero" id="svg_6" transform="matrix(1 0 0 1 0 0)"/>
  <path d="m640.48,102.55c1.75,0.97 3.22,1.94 4.69,3.29l0,1.13l0.98,0.42c1.46,0.81 2.43,1.71 3.52,2.96l0,1.12l1.13,0c0.74,1.22 1.48,2.44 2.21,3.66l0.64,1.03c1.53,2.59 2,4.69 2.21,7.7l1.13,0l0.35,1.77l0.46,2.31l0.23,1.16c0.41,2.12 0.41,2.12 0.95,4.21c0.36,1.72 0.36,3.38 0.38,5.14l0.02,1.18c0.03,1.28 0.04,2.57 0.06,3.86l0.04,2.71c0.02,1.9 0.05,3.8 0.07,5.7c0.03,1.93 0.06,3.85 0.09,5.78c0.28,18.34 0.28,18.34 -0.03,25.18l-0.06,1.25c-0.41,6.92 -2.86,13.23 -6.44,19.1c-1.66,2.39 -3.47,4.33 -5.69,6.2l-1.03,0.93c-4.09,3.4 -9.31,5.08 -14.47,6.17c-6.66,1.06 -14.12,0.88 -20.52,-1.32c-6.55,-2.75 -11.45,-6.41 -15.79,-12.05c-4.56,-6.67 -6.52,-13.5 -7.17,-21.46c-0.25,-4.3 -0.23,-8.61 -0.24,-12.93l0,-1.55c-0.01,-2.7 -0.02,-5.4 -0.02,-8.11c0,-2.76 -0.01,-5.53 -0.03,-8.3c-0.01,-2.15 -0.01,-4.3 -0.02,-6.45c0,-1.02 0,-2.04 -0.01,-3.05c-0.06,-8.67 0.56,-16.93 4.7,-24.75c3.78,-6.08 8.35,-10.95 14.65,-14.39c2.41,-1.16 4.7,-1.95 7.3,-2.5l1.73,-0.38c8.41,-1.56 16.32,-0.42 23.98,3.28" fill="#ffa726" fill-rule="nonzero" id="svg_7"/>
  <path d="m334.46,12.97c5.17,2.14 9.38,5.51 12.95,9.8c4.1,5.58 6.35,11.5 7.21,18.35c0.56,6.01 -0.8,11.43 -3.28,16.88c-0.98,1.82 -2.1,3.44 -3.37,5.07l-0.83,1.13c-3.28,4.11 -7.69,7.17 -12.43,9.36c-6.08,2.39 -11.77,2.94 -18.26,2.45c-5.34,-0.88 -9.82,-2.85 -14.07,-6.19c-5.15,-4.43 -8.75,-9.36 -11.23,-15.69c-1.96,-5.9 -1.89,-12.51 -0.74,-18.58c0.5,-1.75 1.11,-3.46 1.83,-5.13l0.62,-1.5c2.35,-5.16 5.86,-9.51 10.45,-12.84c9.7,-6.33 20.37,-6.74 31.15,-3.11" fill="#64b5f6" fill-rule="nonzero" id="svg_8" transform="matrix(1 0 0 1 0 0)"/>
  <path d="m295.19,89.45l1.51,0l1.66,0.01l1.75,0c1.91,0 3.82,0 5.73,0l3.98,0.01c3.48,0 6.97,0.01 10.46,0.01c3.56,0.01 7.12,0.01 10.67,0.01c6.99,0.01 13.98,0.02 20.96,0.03l0,1.13l1.13,0l0,77.67l-1.7,0c-0.82,-0.89 -0.82,-0.89 -1.72,-2.14c-1.55,-2.09 -3.19,-4.04 -4.96,-5.95c-2.28,-2.48 -4.43,-5.03 -6.55,-7.66c-1.65,-2 -3.35,-3.96 -5.06,-5.92c-2.1,-2.41 -4.18,-4.83 -6.19,-7.31c-1.98,-2.45 -4.02,-4.84 -6.09,-7.21l-0.93,-1.08c-1.25,-1.45 -2.51,-2.89 -3.77,-4.33c-5.07,-5.77 -8.68,-10.59 -10.79,-18.04c-0.71,-1.87 -1.57,-3.04 -2.87,-4.56c-0.45,-0.53 -0.89,-1.06 -1.35,-1.6c-0.77,-0.91 -1.55,-1.81 -2.33,-2.7c-0.57,-0.66 -1.14,-1.32 -1.71,-1.98c-0.55,-0.63 -1.1,-1.27 -1.66,-1.89c-1.06,-1.24 -1.91,-2.27 -2.45,-3.83l-0.11,-0.91l-1.68,0.56l0.56,-1.69c1.31,-0.65 2.05,-0.63 3.51,-0.63m198,70.99l13.51,0c0.11,6.21 0.21,12.41 0.3,18.62c0.3,20.96 0.31,41.93 0.3,62.89l0,1.23c-0.01,10.51 -0.02,21.02 -0.04,31.53l-54.03,0l-5.63,-10.7c-2.01,-2.99 -2.01,-2.99 -4.1,-5.92c-0.97,-1.39 -0.97,-1.39 -1.53,-3.08l50.66,0l0.56,-94.57zm0,0" fill="#e0e0e0" fill-rule="nonzero" id="svg_9"/>
  <path d="m702.02,117.66l0.56,1.13l1.13,0l0.83,1.66l0.54,1.09c0.4,0.8 0.81,1.61 1.21,2.42c1.02,2.05 2.05,4.09 3.1,6.12c6.95,13.45 10.28,27.02 10.23,42.19l0,2.52c0,1.75 0,3.51 -0.01,5.26c0,2.2 0,4.41 0.01,6.62c0.05,20.43 -1.22,40.02 -11.41,58.21c-5.54,9.59 -13,17.96 -22.43,23.82c-1.69,0.9 -3.32,1.53 -5.15,2.07c0.4,-2.34 1.11,-4.48 1.9,-6.72c3.2,-9.44 4.86,-19.87 4.29,-29.87l-0.35,-1.18l-0.21,-1.07c0.76,-1.31 1.6,-2.58 2.49,-3.8c7.79,-11.16 12.41,-23.89 13.71,-37.43c0.2,-2.59 0.2,-5.18 0.19,-7.78l0.01,-1.81c0,-1.95 0,-3.91 0,-5.86l0,-4.11c0,-2.87 0,-5.75 -0.01,-8.61c0,-3.66 0,-7.32 0.01,-10.97c0,-2.83 0,-5.67 0,-8.5c0,-1.35 0,-2.69 0,-4.04c0,-7.14 -0.05,-14.23 -0.64,-21.36" fill="#ffb74d" fill-rule="nonzero" id="svg_10"/>
  <path d="m685.7,232.49c0.83,0.69 0.83,0.69 1.68,1.69c1.48,8.82 -0.97,20.93 -3.94,29.27c-1.23,3.23 -2.56,6.41 -3.94,9.57l-1.12,-0.56c0.28,-2.12 0.68,-3.76 1.69,-5.63c-0.32,0.17 -0.64,0.34 -0.97,0.51c-3.98,2.07 -8.07,3.66 -12.3,5.15l-2.11,0.75c-5.15,1.79 -10.22,3.31 -15.58,4.28l-1.92,0.38c-13.83,2.31 -27.78,0.95 -40.9,-3.79c-10.01,-3.82 -17.89,-10.89 -25.49,-18.21c-0.79,-0.76 -1.59,-1.52 -2.39,-2.27c-5.26,-5.04 -9.41,-10.98 -13.17,-17.2c1.64,0.74 2.82,1.54 4.08,2.82l0.89,0.88l0.66,0.8l0,1.13l0.98,0.46c1.3,0.68 2.41,1.4 3.52,2.36l0,1.12l1.34,0.53c1.47,0.6 1.47,0.6 2.6,1.16l0,1.13l1.69,0l0,1.12l1.27,0.18c1.54,0.38 1.54,0.38 2.53,1.17c1.59,1.14 3.17,1.67 5.03,2.31l1.06,0.37c1.02,0.35 2.04,0.69 3.06,1.04l1.42,0.49c15.04,5.18 31.88,6.2 47.55,3.45c12.41,-2.45 23.51,-7.75 33.13,-15.97c3.63,-3.18 6.72,-6.66 9.65,-10.49m-45.22,-129.94c1.75,0.97 3.22,1.94 4.69,3.29l0,1.13l0.98,0.42c1.46,0.81 2.43,1.71 3.52,2.96l0,1.12l1.13,0c0.74,1.22 1.48,2.44 2.21,3.66l0.64,1.03c1.53,2.59 2,4.69 2.21,7.7l1.13,0l0.35,1.77l0.46,2.31l0.23,1.16c0.44,2.23 0.44,2.23 0.98,4.43c0.28,1.26 0.28,2.41 0.26,3.69l-0.01,1.37l-0.02,1.03l-1.69,-0.57c-0.39,-1.05 -0.39,-1.05 -0.7,-2.42c-1.31,-4.78 -3.98,-9.36 -7.34,-13.01c-4.11,-3.8 -8.85,-6.49 -14.22,-8.07c-6.44,-1.4 -13.63,-1.3 -19.99,0.4c-4.52,1.6 -8.49,4.45 -11.78,7.91c-3.41,4.16 -5.86,9.33 -6.76,14.63c-0.59,6.33 -0.65,12.65 -0.63,19l0,1.39c0.01,7.39 0.1,14.77 0.25,22.15c0.02,1.06 0.04,2.12 0.05,3.17c0.12,6.42 0.5,12.67 1.46,19.02l-2.26,0c-3.11,-3.86 -5.04,-8.72 -6.19,-13.51c-1.08,-7.08 -1.3,-14.13 -1.29,-21.29l-0.01,-3.11c0,-2.16 0,-4.31 0,-6.47c0,-2.74 -0.01,-5.48 -0.02,-8.22c-0.01,-2.14 -0.01,-4.28 -0.01,-6.41c0,-1.01 0,-2.02 0,-3.03c-0.05,-8.62 0.59,-16.86 4.71,-24.64c3.78,-6.08 8.35,-10.95 14.65,-14.39c2.41,-1.16 4.7,-1.95 7.3,-2.5l1.73,-0.38c8.41,-1.56 16.32,-0.42 23.98,3.28" fill="#e0e0e0" fill-rule="nonzero" id="svg_11"/>
  <path d="m493.19,91.21l13.51,0l0,69.23l-13.51,0l0,-69.23zm0,0" fill="#ffb74d" fill-rule="nonzero" id="svg_12"/>
  <path d="m409.89,123.29c4.09,-0.01 8.2,-0.02 12.29,-0.02c1.91,-0.01 3.81,-0.01 5.71,-0.02c2.19,-0.01 4.38,-0.01 6.57,-0.01l2.08,-0.01l1.91,0l1.69,0l1.27,0.06l0.56,0.57c0.05,1.28 0.06,2.58 0.05,3.87l0,1.17c0,1.24 -0.01,2.48 -0.02,3.72c0,0.83 0,1.67 0,2.51c-0.01,2.06 -0.02,4.12 -0.03,6.17l-1.13,0l-0.56,2.26c-2.85,-0.12 -5.71,-0.25 -8.57,-0.39c-0.96,-0.05 -1.94,-0.09 -2.91,-0.13c-1.39,-0.06 -2.79,-0.13 -4.19,-0.2l-1.31,-0.05c-1.23,-0.06 -1.23,-0.06 -3.28,-0.36c-2,-1.4 -2.78,-3.75 -3.8,-5.91c-1.65,-3.42 -3.46,-6.59 -5.63,-9.72c-0.7,-1.26 -0.7,-1.26 -0.7,-3.51" fill="#e0e0e0" fill-rule="nonzero" id="svg_13"/>
 </g>
</svg>