<svg xmlns="http://www.w3.org/2000/svg" xmlns:xlink="http://www.w3.org/1999/xlink" width="1024" zoomAndPan="magnify" viewBox="0 0 768 322.499991" height="430" preserveAspectRatio="xMidYMid meet" version="1.0"><path fill="#ec811c" d="M 482.417969 14.003906 C 485.019531 14.003906 487.621094 14 490.222656 13.996094 C 495.886719 13.988281 501.550781 13.984375 507.214844 13.984375 C 510.757812 13.980469 514.304688 13.980469 517.851562 13.976562 C 527.695312 13.96875 537.539062 13.964844 547.386719 13.960938 L 556.925781 13.960938 C 567.167969 13.957031 577.414062 13.949219 587.65625 13.933594 C 598.210938 13.921875 608.765625 13.914062 619.320312 13.914062 C 625.234375 13.914062 631.144531 13.910156 637.054688 13.898438 C 642.085938 13.890625 647.113281 13.886719 652.144531 13.890625 C 654.703125 13.894531 657.261719 13.894531 659.824219 13.886719 C 677.496094 13.835938 694.109375 14.4375 709.859375 23.410156 C 716.050781 27.078125 721.96875 31.265625 727.347656 36.046875 L 728.96875 37.488281 C 736.15625 44.128906 741.425781 52.601562 745.449219 61.464844 C 745.90625 62.464844 746.382812 63.449219 746.867188 64.4375 C 753.46875 78.589844 752.859375 95.191406 752.761719 110.460938 C 752.753906 111.957031 752.75 113.457031 752.746094 114.957031 C 752.734375 118.226562 752.722656 121.492188 752.703125 124.761719 C 752.675781 129.835938 752.660156 134.914062 752.644531 139.988281 C 752.609375 149.640625 752.570312 159.296875 752.515625 168.949219 C 752.484375 174.746094 752.457031 180.542969 752.433594 186.339844 C 752.417969 190.511719 752.394531 194.683594 752.371094 198.855469 C 752.355469 201.308594 752.347656 203.761719 752.335938 206.21875 C 752.261719 228.554688 751.273438 249.699219 739.90625 269.527344 C 736.398438 275.421875 732.089844 280.476562 727.347656 285.402344 L 726.378906 286.480469 C 718.421875 295.066406 706.835938 301 695.828125 304.539062 C 683.898438 308.0625 671.507812 308.585938 659.152344 308.554688 C 657.832031 308.550781 656.515625 308.550781 655.195312 308.558594 C 649.394531 308.558594 643.636719 308.320312 637.851562 307.917969 L 637.851562 306.792969 L 636.289062 307.347656 C 633.335938 308.183594 630.378906 308.070312 627.328125 308.054688 L 625.328125 308.0625 C 623.5 308.0625 621.675781 308.0625 619.847656 308.054688 C 617.875 308.050781 615.902344 308.054688 613.929688 308.058594 C 610.066406 308.058594 606.203125 308.058594 602.339844 308.050781 C 597.832031 308.046875 593.324219 308.046875 588.820312 308.046875 C 580.769531 308.046875 572.71875 308.042969 564.667969 308.03125 C 556.875 308.023438 549.082031 308.019531 541.285156 308.023438 L 538.386719 308.023438 C 529.496094 308.023438 520.605469 308.019531 511.714844 308.011719 C 508.582031 308.011719 505.449219 308.011719 502.316406 308.011719 C 498.484375 308.011719 494.65625 308.007812 490.828125 308.003906 C 488.878906 308 486.929688 308 484.980469 308 C 477.65625 308 470.363281 307.976562 463.054688 307.472656 C 460.554688 307.320312 458.085938 307.355469 455.582031 307.425781 C 441.671875 307.570312 429.625 303.707031 417.203125 297.785156 L 417.203125 296.660156 L 416.21875 296.449219 C 414.9375 296.09375 413.867188 295.597656 412.699219 294.972656 L 412.699219 293.84375 L 411.464844 293.414062 C 409.765625 292.667969 408.566406 291.785156 407.140625 290.609375 L 405.65625 289.386719 L 404.257812 288.214844 L 403.15625 287.328125 C 400.601562 285.230469 398.492188 282.867188 396.375 280.335938 L 395.160156 278.929688 C 386.1875 268.34375 381.195312 255.804688 378.527344 242.296875 C 377.066406 233.601562 377.152344 224.84375 377.15625 216.058594 L 377.152344 212.136719 C 377.144531 208.605469 377.144531 205.070312 377.144531 201.539062 L 377.140625 194.902344 C 377.136719 187.558594 377.132812 180.222656 377.132812 172.886719 L 377.132812 170.496094 C 377.132812 164.109375 377.128906 157.71875 377.121094 151.332031 C 377.113281 144.742188 377.109375 138.15625 377.109375 131.570312 C 377.109375 127.882812 377.105469 124.195312 377.101562 120.511719 C 377.097656 117.039062 377.097656 113.566406 377.101562 110.09375 C 377.101562 108.828125 377.101562 107.5625 377.097656 106.300781 C 377.046875 86.828125 379.726562 69.695312 389.058594 52.371094 C 390.714844 49.570312 392.632812 47.007812 394.6875 44.492188 L 395.488281 43.492188 C 404.628906 32.191406 415.441406 24.269531 428.953125 19.019531 C 445.910156 12.710938 464.625 14.007812 482.417969 14.003906 " fill-opacity="1" fill-rule="nonzero"/><path fill="#469fcd" d="M 167.917969 16.910156 C 169.027344 17.460938 170.128906 18.023438 171.226562 18.597656 C 172.351562 19.164062 173.476562 19.726562 174.601562 20.285156 L 174.601562 21.414062 L 175.621094 21.625 C 176.855469 21.976562 176.855469 21.976562 178.542969 23.101562 L 178.542969 24.226562 L 180.230469 24.226562 L 180.230469 25.351562 L 181.21875 25.789062 C 184.984375 27.847656 188.101562 31.894531 190.363281 35.484375 C 194.121094 42.347656 196.964844 49.554688 199.601562 56.910156 C 200.558594 59.558594 201.625 62.160156 202.804688 64.71875 C 203.316406 65.898438 203.730469 67.082031 204.117188 68.308594 C 204.78125 70.390625 205.582031 72.382812 206.441406 74.394531 C 207.453125 76.785156 208.242188 79.132812 208.9375 81.640625 C 209.46875 83.027344 210.03125 84.402344 210.589844 85.78125 C 211.910156 89.0625 213.074219 92.402344 214.234375 95.742188 C 215.710938 99.988281 217.25 104.164062 219.019531 108.296875 C 219.753906 110.078125 220.351562 111.886719 220.941406 113.722656 C 221.394531 115.074219 221.972656 116.359375 222.550781 117.65625 C 223.152344 119.140625 223.640625 120.648438 224.136719 122.167969 C 224.957031 124.671875 225.894531 127.066406 226.949219 129.484375 C 227.332031 130.515625 227.707031 131.546875 228.074219 132.582031 C 229.179688 135.652344 230.441406 138.609375 231.769531 141.585938 C 232.570312 143.535156 233.125 145.472656 233.703125 147.496094 C 234.101562 148.421875 234.503906 149.34375 234.914062 150.265625 C 235.523438 151.757812 236.019531 153.28125 236.519531 154.816406 C 237.339844 157.320312 238.277344 159.714844 239.332031 162.132812 C 239.703125 163.136719 240.066406 164.148438 240.421875 165.15625 C 241.273438 167.527344 242.230469 169.808594 243.277344 172.097656 C 243.882812 173.492188 244.390625 174.90625 244.890625 176.34375 C 245.695312 178.605469 246.617188 180.761719 247.652344 182.925781 C 249.347656 186.574219 250.828125 190.277344 252.253906 194.039062 C 252.976562 195.945312 253.707031 197.847656 254.4375 199.753906 L 254.886719 200.921875 C 256.367188 204.757812 257.925781 208.5625 259.492188 212.367188 C 261.363281 216.921875 263.164062 221.488281 264.839844 226.121094 C 266.238281 229.980469 267.730469 233.804688 269.234375 237.628906 L 270.015625 239.613281 C 271.339844 242.96875 272.667969 246.320312 274.007812 249.667969 C 274.671875 251.335938 275.335938 253 275.996094 254.667969 C 276.316406 255.46875 276.636719 256.269531 276.960938 257.070312 C 280.066406 264.792969 282.898438 272.363281 281.792969 280.828125 C 280.644531 286.65625 278.234375 292.0625 274.335938 296.558594 C 270.289062 300.597656 265.59375 302.871094 260.160156 304.539062 C 254.089844 305.785156 248.019531 305.347656 242.148438 303.414062 C 237.59375 301.507812 233.585938 298.683594 230.328125 294.972656 C 226.679688 290.09375 224.582031 284.699219 222.410156 279.070312 C 222.078125 278.21875 221.746094 277.371094 221.410156 276.523438 C 220.753906 274.847656 220.101562 273.171875 219.453125 271.496094 C 218.695312 269.5625 217.929688 267.632812 217.148438 265.710938 C 215.601562 261.878906 214.167969 258.007812 212.84375 254.09375 L 211.6875 250.757812 C 210.667969 247.808594 210.667969 247.808594 210.1875 246.414062 C 209.824219 245.371094 209.453125 244.332031 209.078125 243.292969 L 208.488281 241.628906 C 207.917969 240.347656 207.917969 240.347656 206.910156 239.738281 C 205.050781 239.058594 203.277344 239.09375 201.324219 239.105469 L 200.027344 239.101562 C 198.589844 239.101562 197.152344 239.105469 195.714844 239.109375 L 192.625 239.105469 C 189.824219 239.101562 187.023438 239.109375 184.222656 239.113281 C 181.289062 239.117188 178.351562 239.117188 175.417969 239.117188 C 170.480469 239.117188 165.546875 239.121094 160.613281 239.128906 C 154.921875 239.136719 149.230469 239.140625 143.539062 239.140625 C 137.46875 239.140625 131.398438 239.144531 125.328125 239.148438 C 123.585938 239.152344 121.84375 239.152344 120.101562 239.152344 C 117.351562 239.152344 114.601562 239.15625 111.847656 239.160156 C 110.84375 239.164062 109.839844 239.164062 108.835938 239.164062 C 104.300781 239.164062 99.765625 239.195312 95.234375 239.40625 L 93.359375 239.492188 L 91.859375 239.808594 C 90.507812 241.175781 90.089844 242.476562 89.609375 244.3125 C 89.320312 245.035156 89.027344 245.757812 88.726562 246.476562 C 88.441406 247.226562 88.160156 247.980469 87.882812 248.734375 L 87.414062 249.980469 C 87.082031 250.859375 86.75 251.738281 86.425781 252.621094 C 85.90625 254.007812 85.382812 255.398438 84.859375 256.785156 C 83.371094 260.742188 81.886719 264.699219 80.417969 268.664062 C 75.699219 281.398438 75.699219 281.398438 72.828125 287.546875 L 72.253906 288.789062 C 69.917969 293.605469 66.996094 297.09375 62.585938 300.136719 C 58.089844 302.878906 53.226562 304.707031 47.953125 305.101562 C 41.996094 305.160156 36.421875 304.140625 31.082031 301.441406 C 26.953125 298.992188 23.78125 296.011719 21.21875 291.945312 C 18.660156 287.203125 17.488281 282.257812 17.277344 276.886719 C 17.375 273.667969 17.859375 270.828125 18.75 267.738281 L 19.128906 266.410156 C 20.394531 262.0625 21.957031 257.84375 23.597656 253.628906 C 24.300781 251.820312 24.992188 250.011719 25.6875 248.203125 C 26.039062 247.28125 26.394531 246.359375 26.746094 245.4375 C 28.320312 241.335938 29.84375 237.21875 31.351562 233.089844 L 32.09375 231.054688 L 33.234375 227.925781 C 45.898438 193.222656 45.898438 193.222656 52.632812 176.238281 C 55.25 169.628906 57.699219 162.957031 60.164062 156.292969 L 60.789062 154.601562 C 62.921875 148.824219 65.039062 143.039062 67.074219 137.226562 C 68.253906 133.867188 69.492188 130.527344 70.75 127.199219 L 71.40625 125.457031 C 72.347656 122.953125 73.292969 120.449219 74.242188 117.949219 C 75.613281 114.332031 76.933594 110.695312 78.210938 107.039062 C 79.570312 103.136719 81.039062 99.28125 82.535156 95.429688 C 85.503906 87.792969 88.308594 80.101562 91.097656 72.398438 C 92.910156 67.402344 94.78125 62.441406 96.777344 57.515625 C 97.605469 55.453125 98.363281 53.375 99.105469 51.28125 C 100.835938 46.578125 102.984375 42.136719 105.367188 37.734375 L 106.273438 36.050781 C 110.007812 29.671875 115.871094 23.996094 122.253906 20.285156 C 135.882812 12.671875 153.300781 10.292969 167.917969 16.910156 M 148.148438 81.640625 C 146.472656 83.574219 145.710938 85.691406 144.910156 88.078125 L 144.480469 89.328125 C 144.007812 90.703125 143.542969 92.082031 143.082031 93.460938 L 142.570312 94.972656 C 140.339844 101.542969 140.339844 101.542969 138.285156 108.167969 C 137.683594 110.191406 137 112.183594 136.238281 114.152344 C 135.171875 116.976562 134.214844 119.84375 133.230469 122.695312 L 132.5625 124.621094 C 131.625 127.339844 130.691406 130.0625 129.792969 132.796875 C 129.09375 134.910156 128.28125 136.960938 127.425781 139.019531 C 125.933594 142.664062 124.667969 146.363281 123.445312 150.109375 C 122.421875 153.226562 121.277344 156.296875 120.003906 159.316406 C 118.457031 163.003906 117.164062 166.699219 116.023438 170.53125 C 115.503906 172.246094 114.941406 173.941406 114.375 175.640625 L 181.917969 175.640625 C 181.175781 172.304688 180.445312 169.363281 179.21875 166.238281 L 178.753906 165.023438 C 178.421875 164.164062 178.089844 163.308594 177.757812 162.449219 C 176.863281 160.136719 175.980469 157.820312 175.097656 155.503906 L 174.546875 154.0625 C 171.859375 147.011719 169.332031 139.902344 166.789062 132.800781 C 165.996094 130.589844 165.191406 128.378906 164.375 126.175781 C 162.027344 119.839844 159.847656 113.453125 157.714844 107.039062 L 157.277344 105.71875 C 155.820312 101.347656 154.382812 96.972656 152.964844 92.59375 L 152.34375 90.691406 C 151.972656 89.546875 151.605469 88.398438 151.242188 87.25 L 150.746094 85.738281 L 150.332031 84.4375 C 149.785156 83.21875 149.144531 82.519531 148.148438 81.640625 " fill-opacity="1" fill-rule="nonzero"/><path fill="#323e4e" d="M 484.375 14.054688 C 486.964844 14.0625 489.554688 14.066406 492.144531 14.066406 C 497.183594 14.074219 502.222656 14.082031 507.261719 14.09375 C 505.414062 15.042969 503.558594 15.753906 501.597656 16.453125 C 492.835938 19.8125 485.320312 26.277344 478.554688 32.671875 L 477.386719 33.769531 C 469.632812 41.277344 463.726562 50.128906 458.855469 59.6875 L 447.035156 59.6875 L 445.910156 61.941406 C 443.335938 66.003906 440.378906 69.863281 436.902344 73.199219 L 435.214844 73.761719 L 435.214844 74.886719 C 433.4375 76.332031 431.492188 77.558594 429.585938 78.824219 C 429.222656 79.078125 428.859375 79.332031 428.484375 79.589844 C 422.832031 83.375 416.503906 85.402344 409.886719 86.707031 C 409.414062 94.933594 409.25 103.125 409.285156 111.367188 C 409.289062 112.480469 409.292969 113.589844 409.292969 114.703125 C 409.300781 117.378906 409.308594 120.054688 409.320312 122.730469 L 410.535156 122.746094 C 414.304688 122.804688 418.074219 122.859375 421.84375 122.921875 C 423.78125 122.953125 425.71875 122.984375 427.65625 123.011719 C 429.882812 123.042969 432.105469 123.078125 434.332031 123.117188 L 436.449219 123.144531 L 438.398438 123.175781 L 440.121094 123.203125 L 441.40625 123.292969 L 441.96875 123.855469 C 442.023438 124.808594 442.039062 125.761719 442.035156 126.714844 L 442.039062 128.601562 L 442.035156 130.699219 L 442.035156 132.90625 C 442.03125 134.933594 442.03125 136.960938 442.023438 138.988281 C 442.023438 140.277344 442.019531 141.570312 442.019531 142.863281 C 441.996094 164.113281 441.859375 185.359375 441.71875 206.605469 C 441.675781 212.914062 441.636719 219.21875 441.597656 225.523438 C 441.535156 235.351562 441.46875 245.179688 441.40625 255.007812 L 492.628906 255.007812 L 493.191406 160.441406 L 543.285156 160.441406 L 543.851562 182.394531 C 545.148438 194.425781 545.148438 194.425781 548.351562 206.035156 L 549.074219 208.097656 C 552.035156 216.425781 556.074219 224.402344 561.863281 231.15625 L 562.988281 232.492188 L 562.988281 233.617188 L 564.675781 234.179688 C 565.625 235.140625 565.625 235.140625 566.609375 236.324219 C 567.703125 237.621094 568.773438 238.835938 569.988281 240.019531 L 570.867188 240.933594 L 570.867188 242.058594 L 571.851562 242.515625 C 573.152344 243.203125 574.257812 243.917969 575.371094 244.875 L 575.371094 246 L 576.707031 246.527344 C 578.183594 247.125 578.183594 247.125 579.3125 247.6875 L 579.3125 248.816406 L 581 248.816406 L 581 249.941406 L 582.265625 250.117188 C 583.8125 250.503906 583.8125 250.503906 584.800781 251.285156 C 586.394531 252.429688 587.972656 252.960938 589.828125 253.597656 L 590.894531 253.96875 C 591.910156 254.316406 592.929688 254.664062 593.945312 255.007812 L 595.371094 255.503906 C 610.40625 260.679688 627.253906 261.695312 642.917969 258.945312 C 655.332031 256.5 666.425781 251.203125 676.054688 242.976562 C 679.679688 239.800781 682.765625 236.316406 685.695312 232.492188 C 686.53125 233.183594 686.53125 233.183594 687.382812 234.179688 C 689.019531 243.984375 685.925781 256.707031 682.5625 265.882812 C 680.761719 270.601562 678.679688 274.644531 675.5625 278.648438 L 673.453125 281.671875 C 666.582031 291.011719 657.9375 298.464844 647.417969 303.414062 C 640.742188 306.324219 634.574219 308.089844 627.261719 308.054688 L 625.257812 308.0625 C 623.433594 308.0625 621.609375 308.0625 619.78125 308.054688 C 617.8125 308.050781 615.839844 308.054688 613.867188 308.058594 C 610.003906 308.058594 606.144531 308.058594 602.28125 308.050781 C 597.777344 308.046875 593.269531 308.046875 588.765625 308.046875 C 580.71875 308.046875 572.671875 308.042969 564.625 308.03125 C 556.835938 308.023438 549.046875 308.019531 541.257812 308.023438 L 538.355469 308.023438 C 529.46875 308.023438 520.582031 308.019531 511.691406 308.011719 C 508.5625 308.011719 505.429688 308.011719 502.296875 308.011719 C 498.472656 308.011719 494.644531 308.007812 490.816406 308.003906 C 488.867188 308 486.921875 308 484.972656 308 C 477.652344 308 470.363281 307.976562 463.054688 307.472656 C 460.558594 307.320312 458.085938 307.355469 455.582031 307.425781 C 441.671875 307.570312 429.625 303.707031 417.203125 297.785156 L 417.203125 296.660156 L 416.21875 296.449219 C 414.9375 296.09375 413.867188 295.597656 412.699219 294.972656 L 412.699219 293.84375 L 411.464844 293.414062 C 409.769531 292.667969 408.566406 291.785156 407.140625 290.609375 L 405.65625 289.386719 L 404.257812 288.214844 L 403.15625 287.328125 C 400.601562 285.230469 398.492188 282.867188 396.375 280.335938 L 395.160156 278.929688 C 386.1875 268.34375 381.195312 255.804688 378.527344 242.296875 C 377.066406 233.601562 377.152344 224.84375 377.15625 216.058594 L 377.152344 212.136719 C 377.144531 208.605469 377.144531 205.070312 377.144531 201.539062 L 377.140625 194.902344 C 377.136719 187.5625 377.132812 180.226562 377.132812 172.886719 L 377.132812 170.496094 C 377.132812 164.109375 377.128906 157.71875 377.121094 151.332031 C 377.113281 144.742188 377.109375 138.15625 377.109375 131.570312 C 377.109375 127.882812 377.105469 124.195312 377.101562 120.511719 C 377.097656 117.039062 377.097656 113.566406 377.101562 110.09375 C 377.101562 108.828125 377.101562 107.5625 377.097656 106.300781 C 377.046875 86.828125 379.726562 69.695312 389.058594 52.371094 C 390.714844 49.570312 392.632812 47.007812 394.6875 44.492188 L 395.488281 43.492188 C 404.628906 32.191406 415.441406 24.269531 428.953125 19.019531 C 446.488281 12.496094 465.988281 14.011719 484.375 14.054688 " fill-opacity="1" fill-rule="nonzero"/><path fill="#fefefe" d="M 659.117188 63.058594 C 660.289062 63.617188 661.453125 64.179688 662.617188 64.753906 L 664.347656 65.597656 C 670.996094 69.027344 676.933594 73.667969 682.316406 78.824219 L 683.589844 79.992188 C 687.320312 83.519531 690.175781 87.523438 693.011719 91.773438 L 694.105469 93.363281 C 700.371094 103.175781 702.382812 115.25 703.144531 126.671875 C 703.214844 128.792969 703.226562 130.910156 703.226562 133.03125 L 703.230469 134.835938 C 703.234375 136.785156 703.238281 138.734375 703.238281 140.679688 L 703.242188 144.789062 C 703.246094 147.652344 703.25 150.515625 703.246094 153.378906 C 703.246094 157.027344 703.257812 160.675781 703.265625 164.320312 C 703.269531 167.148438 703.273438 169.976562 703.273438 172.800781 C 703.273438 174.144531 703.273438 175.488281 703.28125 176.832031 C 703.308594 187.140625 702.832031 196.691406 699.765625 206.597656 L 699.425781 207.734375 C 695.445312 220.714844 687.691406 232.730469 677.8125 242.058594 C 668.1875 250.679688 656.890625 256.449219 644.285156 259.234375 C 628.15625 262.480469 610.09375 261.375 594.507812 256.132812 C 592.386719 255.292969 590.359375 254.339844 588.316406 253.316406 C 587.378906 252.941406 586.441406 252.566406 585.503906 252.191406 C 584.6875 251.804688 583.878906 251.40625 583.074219 250.996094 L 581.886719 250.394531 L 581 249.941406 L 581 248.816406 L 579.3125 248.816406 L 579.3125 247.6875 L 578.074219 247.253906 C 573.519531 245.261719 570.003906 241.359375 566.925781 237.558594 C 565.058594 235.265625 565.058594 235.265625 563.023438 233.125 C 561.3125 231.363281 559.910156 229.421875 558.484375 227.425781 L 557.40625 225.929688 C 553.289062 220.015625 550.503906 213.730469 548.070312 206.984375 L 547.613281 205.730469 C 547.261719 204.71875 546.957031 203.691406 546.664062 202.660156 L 547.226562 201.535156 L 546.101562 200.96875 C 545.765625 199.667969 545.484375 198.355469 545.257812 197.03125 L 544.851562 194.847656 C 543.675781 187.488281 543.113281 180.308594 543.179688 172.863281 C 543.1875 171.941406 543.191406 171.019531 543.195312 170.097656 C 543.210938 167.480469 543.238281 164.863281 543.265625 162.246094 C 543.28125 160.988281 543.292969 159.734375 543.308594 158.476562 C 543.351562 154.179688 543.40625 149.878906 543.46875 145.578125 C 543.488281 144.15625 543.507812 142.730469 543.523438 141.304688 C 543.796875 119.992188 543.796875 119.992188 546.523438 110.699219 L 546.96875 109.125 C 548.183594 105 549.710938 101.207031 551.730469 97.402344 L 552.515625 95.820312 C 558.441406 84.296875 568.011719 75.167969 578.75 68.132812 C 602.3125 53.164062 633.785156 51.375 659.117188 63.058594 " fill-opacity="1" fill-rule="nonzero"/><path fill="#323e4e" d="M 167.917969 16.910156 C 169.027344 17.460938 170.128906 18.023438 171.226562 18.597656 C 172.351562 19.164062 173.476562 19.726562 174.601562 20.285156 L 174.601562 21.414062 L 175.621094 21.625 C 176.855469 21.976562 176.855469 21.976562 178.542969 23.101562 L 178.542969 24.226562 L 180.230469 24.226562 L 180.230469 25.351562 L 181.21875 25.789062 C 184.984375 27.847656 188.101562 31.894531 190.363281 35.484375 C 194.121094 42.347656 196.964844 49.554688 199.601562 56.910156 C 200.558594 59.558594 201.625 62.160156 202.804688 64.71875 C 203.316406 65.898438 203.730469 67.082031 204.117188 68.308594 C 204.78125 70.390625 205.582031 72.382812 206.441406 74.394531 C 207.453125 76.785156 208.242188 79.132812 208.9375 81.640625 C 209.46875 83.027344 210.03125 84.402344 210.589844 85.78125 C 211.910156 89.0625 213.074219 92.402344 214.234375 95.742188 C 215.710938 99.988281 217.25 104.164062 219.019531 108.296875 C 219.753906 110.078125 220.351562 111.886719 220.941406 113.722656 C 221.394531 115.074219 221.972656 116.359375 222.550781 117.65625 C 223.152344 119.140625 223.640625 120.648438 224.136719 122.167969 C 224.957031 124.671875 225.894531 127.066406 226.949219 129.484375 C 227.332031 130.515625 227.707031 131.546875 228.074219 132.582031 C 229.179688 135.652344 230.441406 138.609375 231.769531 141.585938 C 232.570312 143.535156 233.125 145.472656 233.703125 147.496094 C 234.101562 148.421875 234.503906 149.34375 234.914062 150.265625 C 235.523438 151.757812 236.019531 153.28125 236.519531 154.816406 C 237.339844 157.320312 238.277344 159.714844 239.332031 162.132812 C 239.703125 163.136719 240.066406 164.148438 240.421875 165.15625 C 241.292969 167.585938 242.292969 169.960938 243.421875 172.277344 C 243.835938 173.390625 243.835938 173.390625 243.835938 175.640625 L 181.917969 175.640625 L 174.039062 154.25 L 171.367188 147.179688 C 169.289062 141.664062 167.351562 136.101562 165.445312 130.523438 C 163.945312 126.136719 162.398438 121.773438 160.8125 117.417969 C 158.910156 112.191406 157.109375 106.9375 155.359375 101.65625 L 154.996094 100.570312 C 153.847656 97.109375 152.707031 93.648438 151.582031 90.179688 L 151.113281 88.734375 C 150.832031 87.882812 150.558594 87.027344 150.285156 86.171875 C 149.746094 84.523438 149.390625 83.449219 148.148438 82.203125 C 146.59375 85.1875 145.292969 88.132812 144.207031 91.316406 L 143.769531 92.574219 C 142.515625 96.21875 141.371094 99.898438 140.265625 103.59375 C 139.882812 104.871094 139.496094 106.148438 139.105469 107.425781 L 138.59375 109.125 C 138.050781 110.796875 137.445312 112.4375 136.824219 114.078125 C 135.761719 116.933594 134.785156 119.816406 133.792969 122.695312 L 133.128906 124.621094 C 132.1875 127.339844 131.253906 130.0625 130.355469 132.796875 C 129.65625 134.910156 128.84375 136.960938 127.988281 139.019531 C 126.496094 142.664062 125.230469 146.363281 124.007812 150.109375 C 122.988281 153.226562 121.839844 156.296875 120.566406 159.316406 C 119.019531 163.003906 117.746094 166.6875 116.640625 170.53125 C 116.0625 172.265625 116.0625 172.265625 114.375 175.640625 L 53.582031 175.078125 C 55.484375 168.746094 55.484375 168.746094 56.289062 166.585938 L 56.835938 165.109375 L 57.410156 163.574219 L 58.023438 161.921875 C 58.664062 160.199219 59.308594 158.472656 59.953125 156.75 C 60.792969 154.484375 61.636719 152.222656 62.476562 149.957031 L 63.097656 148.289062 C 64.460938 144.605469 65.789062 140.910156 67.085938 137.203125 C 68.261719 133.847656 69.496094 130.519531 70.75 127.199219 L 71.40625 125.457031 C 72.351562 122.953125 73.292969 120.453125 74.242188 117.949219 C 75.613281 114.332031 76.933594 110.695312 78.210938 107.039062 C 79.570312 103.136719 81.039062 99.28125 82.535156 95.429688 C 85.503906 87.792969 88.308594 80.101562 91.097656 72.398438 C 92.910156 67.402344 94.78125 62.441406 96.777344 57.515625 C 97.605469 55.453125 98.363281 53.375 99.105469 51.28125 C 100.835938 46.578125 102.984375 42.136719 105.367188 37.734375 L 106.273438 36.050781 C 110.007812 29.671875 115.871094 23.996094 122.253906 20.285156 C 135.882812 12.671875 153.300781 10.292969 167.917969 16.910156 M 293.9375 89.382812 L 295.253906 89.386719 L 296.765625 89.378906 L 298.421875 89.394531 L 300.171875 89.394531 C 302.082031 89.394531 303.988281 89.402344 305.898438 89.410156 L 309.867188 89.414062 C 313.351562 89.421875 316.835938 89.429688 320.320312 89.445312 C 323.875 89.453125 327.429688 89.460938 330.980469 89.464844 C 337.957031 89.476562 344.933594 89.496094 351.910156 89.519531 L 351.910156 90.644531 L 353.035156 90.644531 C 353.042969 114.152344 353.054688 137.660156 353.066406 161.164062 C 353.070312 168.984375 353.074219 176.804688 353.078125 184.621094 C 353.082031 192.671875 353.085938 200.722656 353.085938 208.777344 C 353.085938 213.285156 353.089844 217.796875 353.09375 222.304688 C 353.101562 232.5625 353.097656 242.8125 353.042969 253.070312 C 353.039062 254.320312 353.03125 255.570312 353.027344 256.824219 C 353.015625 259.925781 352.996094 263.027344 352.945312 266.128906 C 352.929688 266.976562 352.925781 267.824219 352.921875 268.671875 C 352.902344 273.210938 352.375 277.382812 351.195312 281.746094 L 350.859375 282.996094 C 349.417969 287.890625 346.683594 292.101562 343.265625 295.871094 C 341.585938 297.394531 339.851562 298.613281 337.941406 299.824219 L 336.957031 300.476562 C 334.125 302.292969 331.332031 303.792969 327.941406 304.117188 C 326.34375 304.164062 324.761719 304.152344 323.167969 304.117188 L 321.539062 304.109375 C 316.65625 304.054688 312.839844 303.53125 308.496094 301.269531 L 307.320312 300.683594 C 303.222656 298.59375 299.996094 295.902344 297.308594 292.15625 C 292.542969 284.316406 290.863281 276.496094 290.554688 267.390625 C 290.460938 262.304688 290.476562 257.222656 290.480469 252.136719 C 290.480469 250.070312 290.480469 248.003906 290.480469 245.9375 C 290.476562 241.902344 290.476562 237.867188 290.480469 233.828125 C 290.480469 230.546875 290.480469 227.265625 290.480469 223.984375 L 290.480469 219.707031 C 290.476562 210.796875 290.476562 201.886719 290.480469 192.976562 C 290.484375 185.34375 290.484375 177.707031 290.480469 170.074219 C 290.480469 160.246094 290.476562 150.414062 290.480469 140.582031 L 290.480469 139.167969 C 290.480469 135.890625 290.480469 132.613281 290.476562 129.339844 C 290.476562 125.34375 290.476562 121.347656 290.480469 117.351562 C 290.480469 115.316406 290.480469 113.28125 290.480469 111.246094 C 290.480469 109.035156 290.480469 106.820312 290.484375 104.609375 L 290.480469 102.683594 C 290.488281 99.664062 290.554688 96.65625 290.734375 93.644531 L 290.832031 91.980469 L 291.117188 90.648438 C 292.804688 89.519531 292.804688 89.519531 293.9375 89.382812 " fill-opacity="1" fill-rule="nonzero"/><path fill="#fefefe" d="M 455.238281 59.105469 L 456.46875 59.117188 C 457.796875 59.132812 459.125 59.152344 460.453125 59.171875 L 463.230469 59.210938 C 465.167969 59.234375 467.101562 59.261719 469.035156 59.292969 C 471.523438 59.328125 474.007812 59.363281 476.492188 59.394531 C 478.402344 59.417969 480.3125 59.441406 482.222656 59.472656 C 483.140625 59.484375 484.058594 59.496094 484.976562 59.507812 C 486.25 59.523438 487.527344 59.542969 488.800781 59.5625 L 491.003906 59.59375 L 492.628906 59.6875 L 493.191406 60.25 C 493.246094 61.285156 493.261719 62.324219 493.261719 63.359375 L 493.265625 65.417969 L 493.261719 67.707031 L 493.265625 70.117188 C 493.265625 72.335938 493.265625 74.554688 493.265625 76.773438 C 493.261719 79.160156 493.265625 81.550781 493.265625 83.9375 C 493.269531 88.621094 493.269531 93.304688 493.265625 97.984375 C 493.265625 101.789062 493.265625 105.59375 493.265625 109.398438 L 493.265625 114.324219 C 493.269531 124.628906 493.265625 134.933594 493.261719 145.234375 C 493.261719 154.085938 493.261719 162.9375 493.265625 171.785156 C 493.269531 183.144531 493.269531 194.503906 493.265625 205.863281 L 493.265625 207.492188 C 493.265625 211.292969 493.265625 215.09375 493.265625 218.894531 C 493.269531 223.527344 493.269531 228.15625 493.265625 232.785156 C 493.265625 235.148438 493.265625 237.511719 493.265625 239.878906 C 493.265625 242.039062 493.265625 244.199219 493.261719 246.359375 C 493.261719 247.144531 493.261719 247.929688 493.265625 248.714844 C 493.265625 249.777344 493.265625 250.835938 493.261719 251.898438 L 493.261719 253.6875 L 493.191406 255.007812 L 492.628906 255.570312 C 491.136719 255.625 489.65625 255.644531 488.164062 255.644531 L 486.746094 255.644531 C 485.191406 255.648438 483.636719 255.648438 482.082031 255.644531 L 478.847656 255.644531 C 476.585938 255.648438 474.320312 255.644531 472.058594 255.644531 C 469.15625 255.640625 466.257812 255.640625 463.355469 255.644531 C 461.128906 255.648438 458.902344 255.648438 456.671875 255.644531 C 455.601562 255.644531 454.535156 255.644531 453.464844 255.644531 C 451.96875 255.648438 450.472656 255.644531 448.972656 255.640625 L 447.636719 255.644531 C 445.488281 255.636719 443.492188 255.527344 441.40625 255.007812 C 440.964844 252.671875 440.777344 250.484375 440.796875 248.109375 L 440.808594 245.996094 L 440.832031 243.699219 C 440.835938 242.886719 440.84375 242.070312 440.847656 241.257812 C 440.859375 239.5 440.871094 237.746094 440.886719 235.988281 C 440.914062 233.167969 440.933594 230.34375 440.953125 227.523438 C 440.984375 223.003906 441.015625 218.488281 441.054688 213.972656 C 441.132812 203.617188 441.210938 193.257812 441.285156 182.902344 C 441.425781 163.21875 441.441406 143.539062 441.40625 123.855469 L 431.742188 123.707031 C 427.160156 123.636719 427.160156 123.636719 422.578125 123.570312 C 420.519531 123.539062 418.457031 123.507812 416.394531 123.472656 L 414.304688 123.441406 L 412.332031 123.410156 L 410.609375 123.382812 L 409.320312 123.292969 L 408.757812 122.730469 C 408.703125 121.082031 408.679688 119.445312 408.683594 117.796875 L 408.683594 116.253906 C 408.683594 115.167969 408.683594 114.082031 408.6875 112.996094 C 408.6875 111.378906 408.6875 109.761719 408.683594 108.140625 C 408.679688 100.980469 408.917969 93.855469 409.320312 86.707031 C 410.992188 86.144531 412.65625 85.59375 414.351562 85.117188 C 420.980469 83.25 426.894531 80.359375 432.40625 76.226562 C 433.527344 75.449219 433.527344 75.449219 435.214844 74.886719 L 435.214844 73.761719 C 435.851562 73.183594 436.507812 72.632812 437.183594 72.105469 C 440.410156 69.371094 442.785156 65.964844 444.988281 62.375 C 445.664062 61.304688 445.664062 61.304688 447.035156 59.6875 C 449.777344 59.105469 452.441406 59.066406 455.238281 59.105469 " fill-opacity="1" fill-rule="nonzero"/><path fill="#323e4e" d="M 640.484375 102.550781 C 642.226562 103.523438 643.703125 104.492188 645.167969 105.84375 L 645.167969 106.96875 L 646.152344 107.390625 C 647.605469 108.199219 648.578125 109.101562 649.671875 110.347656 L 649.671875 111.472656 L 650.796875 111.472656 C 651.542969 112.6875 652.28125 113.90625 653.011719 115.132812 L 653.648438 116.15625 C 655.179688 118.75 655.652344 120.851562 655.863281 123.855469 L 656.988281 123.855469 L 657.335938 125.625 L 657.796875 127.9375 L 658.027344 129.101562 C 658.4375 131.222656 658.4375 131.222656 658.976562 133.308594 C 659.339844 135.03125 659.339844 136.691406 659.363281 138.453125 L 659.382812 139.628906 C 659.40625 140.914062 659.421875 142.199219 659.4375 143.488281 L 659.476562 146.199219 C 659.503906 148.097656 659.53125 149.996094 659.554688 151.898438 C 659.578125 153.828125 659.605469 155.753906 659.636719 157.683594 C 659.921875 176.023438 659.921875 176.023438 659.605469 182.855469 L 659.550781 184.109375 C 659.136719 191.03125 656.691406 197.339844 653.109375 203.207031 C 651.445312 205.597656 649.640625 207.542969 647.417969 209.414062 L 646.390625 210.335938 C 642.296875 213.742188 637.078125 215.421875 631.921875 216.507812 C 625.257812 217.570312 617.796875 217.386719 611.398438 215.191406 C 604.851562 212.441406 599.945312 208.777344 595.609375 203.140625 C 591.046875 196.46875 589.085938 189.644531 588.441406 181.683594 C 588.1875 177.378906 588.210938 173.066406 588.203125 168.753906 L 588.199219 167.203125 C 588.1875 164.5 588.183594 161.796875 588.183594 159.09375 C 588.175781 156.328125 588.167969 153.5625 588.148438 150.792969 C 588.136719 148.644531 588.136719 146.492188 588.132812 144.339844 C 588.132812 143.320312 588.128906 142.300781 588.121094 141.285156 C 588.0625 132.617188 588.675781 124.363281 592.820312 116.539062 C 596.597656 110.464844 601.171875 105.589844 607.472656 102.148438 C 609.875 100.988281 612.167969 100.203125 614.773438 99.652344 L 616.496094 99.265625 C 624.910156 97.707031 632.820312 98.851562 640.484375 102.550781 " fill-opacity="1" fill-rule="nonzero"/><path fill="#469fcd" d="M 334.460938 12.96875 C 339.625 15.109375 343.84375 18.480469 347.40625 22.769531 C 351.507812 28.347656 353.761719 34.269531 354.617188 41.117188 C 355.183594 47.128906 353.820312 52.546875 351.34375 58 C 350.355469 59.816406 349.242188 61.4375 347.96875 63.066406 L 347.136719 64.195312 C 343.863281 68.3125 339.453125 71.367188 334.710938 73.558594 C 328.625 75.953125 322.941406 76.503906 316.445312 76.011719 C 311.105469 75.125 306.628906 73.164062 302.375 69.820312 C 297.230469 65.386719 293.625 60.457031 291.152344 54.128906 C 289.1875 48.226562 289.257812 41.621094 290.40625 35.550781 C 290.910156 33.800781 291.523438 32.089844 292.242188 30.417969 L 292.863281 28.921875 C 295.210938 23.761719 298.722656 19.414062 303.308594 16.082031 C 313.007812 9.75 323.679688 9.339844 334.460938 12.96875 " fill-opacity="1" fill-rule="nonzero"/><path fill="#1f2633" d="M 295.1875 89.453125 L 296.695312 89.449219 L 298.359375 89.457031 L 300.105469 89.457031 C 302.019531 89.457031 303.933594 89.460938 305.84375 89.464844 L 309.816406 89.46875 C 313.304688 89.46875 316.792969 89.476562 320.28125 89.480469 C 323.839844 89.488281 327.398438 89.492188 330.953125 89.492188 C 337.9375 89.5 344.925781 89.507812 351.910156 89.519531 L 351.910156 90.648438 L 353.035156 90.648438 L 353.035156 168.324219 L 351.34375 168.324219 C 350.515625 167.433594 350.515625 167.433594 349.621094 166.179688 C 348.066406 164.085938 346.433594 162.144531 344.660156 160.230469 C 342.375 157.75 340.226562 155.195312 338.105469 152.570312 C 336.457031 150.566406 334.757812 148.609375 333.050781 146.652344 C 330.949219 144.242188 328.871094 141.820312 326.859375 139.335938 C 324.878906 136.890625 322.839844 134.5 320.773438 132.125 L 319.839844 131.046875 C 318.585938 129.601562 317.328125 128.160156 316.066406 126.722656 C 311 120.945312 307.386719 116.128906 305.28125 108.683594 C 304.566406 106.808594 303.710938 105.644531 302.410156 104.121094 C 301.964844 103.589844 301.519531 103.0625 301.058594 102.515625 C 300.285156 101.613281 299.507812 100.714844 298.726562 99.816406 C 298.15625 99.160156 297.585938 98.503906 297.019531 97.84375 C 296.472656 97.207031 295.917969 96.574219 295.363281 95.945312 C 294.296875 94.710938 293.445312 93.675781 292.910156 92.121094 L 292.804688 91.210938 L 291.117188 91.773438 L 291.679688 90.082031 C 292.988281 89.429688 293.730469 89.453125 295.1875 89.453125 M 493.191406 160.441406 L 506.699219 160.441406 C 506.8125 166.648438 506.914062 172.851562 507 179.058594 C 507.304688 200.023438 507.3125 220.988281 507.296875 241.953125 L 507.296875 243.183594 C 507.289062 253.691406 507.277344 264.199219 507.261719 274.707031 L 453.226562 274.707031 L 447.597656 264.011719 C 445.585938 261.023438 445.585938 261.023438 443.496094 258.085938 C 442.53125 256.695312 442.53125 256.695312 441.96875 255.007812 L 492.628906 255.007812 Z M 493.191406 160.441406 " fill-opacity="1" fill-rule="nonzero"/><path fill="#b85c15" d="M 702.019531 117.664062 L 702.582031 118.789062 L 703.707031 118.789062 L 704.535156 120.445312 L 705.078125 121.535156 C 705.484375 122.34375 705.886719 123.152344 706.289062 123.960938 C 707.308594 126.011719 708.34375 128.050781 709.394531 130.082031 C 716.335938 143.53125 719.667969 157.101562 719.617188 172.265625 L 719.621094 174.792969 C 719.621094 176.542969 719.621094 178.296875 719.613281 180.046875 C 719.609375 182.253906 719.613281 184.460938 719.617188 186.667969 C 719.667969 207.097656 718.402344 226.6875 708.210938 244.875 C 702.667969 254.46875 695.210938 262.839844 685.78125 268.699219 C 684.089844 269.597656 682.464844 270.226562 680.628906 270.765625 C 681.027344 268.425781 681.742188 266.285156 682.527344 264.046875 C 685.726562 254.613281 687.390625 244.175781 686.820312 234.179688 L 686.472656 233 L 686.257812 231.929688 C 687.023438 230.617188 687.855469 229.351562 688.753906 228.128906 C 696.535156 216.96875 701.160156 204.238281 702.464844 190.695312 C 702.660156 188.105469 702.660156 185.515625 702.652344 182.917969 L 702.65625 181.113281 C 702.660156 179.15625 702.65625 177.203125 702.65625 175.25 L 702.65625 171.136719 C 702.660156 168.265625 702.65625 165.394531 702.652344 162.527344 C 702.652344 158.871094 702.652344 155.214844 702.65625 151.558594 C 702.65625 148.726562 702.65625 145.894531 702.65625 143.0625 C 702.65625 141.714844 702.65625 140.367188 702.65625 139.023438 C 702.664062 131.878906 702.605469 124.785156 702.019531 117.664062 " fill-opacity="1" fill-rule="nonzero"/><path fill="#1f2633" d="M 685.695312 232.492188 C 686.53125 233.183594 686.53125 233.183594 687.382812 234.179688 C 688.859375 243.003906 686.40625 255.105469 683.441406 263.449219 C 682.210938 266.675781 680.882812 269.855469 679.503906 273.019531 L 678.378906 272.457031 C 678.664062 270.34375 679.0625 268.703125 680.066406 266.828125 C 679.746094 266.996094 679.429688 267.167969 679.101562 267.34375 C 675.117188 269.410156 671.03125 270.996094 666.804688 272.492188 L 664.691406 273.238281 C 659.542969 275.03125 654.46875 276.546875 649.109375 277.523438 L 647.1875 277.898438 C 633.355469 280.207031 619.414062 278.847656 606.285156 274.113281 C 596.28125 270.292969 588.402344 263.222656 580.800781 255.898438 C 580.007812 255.136719 579.210938 254.382812 578.410156 253.632812 C 573.152344 248.585938 569 242.648438 565.238281 236.433594 C 566.875 237.171875 568.058594 237.96875 569.320312 239.246094 L 570.207031 240.125 L 570.867188 240.933594 L 570.867188 242.058594 L 571.851562 242.519531 C 573.152344 243.203125 574.257812 243.917969 575.371094 244.875 L 575.371094 246 L 576.707031 246.527344 C 578.183594 247.125 578.183594 247.125 579.3125 247.6875 L 579.3125 248.816406 L 581 248.816406 L 581 249.941406 L 582.265625 250.117188 C 583.8125 250.503906 583.8125 250.503906 584.800781 251.285156 C 586.394531 252.429688 587.972656 252.960938 589.828125 253.597656 L 590.894531 253.96875 C 591.910156 254.316406 592.929688 254.664062 593.945312 255.007812 L 595.371094 255.503906 C 610.40625 260.679688 627.253906 261.695312 642.917969 258.945312 C 655.332031 256.5 666.425781 251.203125 676.054688 242.976562 C 679.679688 239.800781 682.765625 236.316406 685.695312 232.492188 M 640.484375 102.550781 C 642.226562 103.523438 643.703125 104.492188 645.167969 105.84375 L 645.167969 106.96875 L 646.152344 107.390625 C 647.605469 108.199219 648.578125 109.101562 649.671875 110.347656 L 649.671875 111.472656 L 650.796875 111.472656 C 651.542969 112.6875 652.28125 113.90625 653.011719 115.132812 L 653.648438 116.15625 C 655.179688 118.75 655.652344 120.851562 655.863281 123.855469 L 656.988281 123.855469 L 657.335938 125.625 L 657.796875 127.9375 L 658.027344 129.101562 C 658.46875 131.328125 658.46875 131.328125 659.011719 133.53125 C 659.292969 134.785156 659.292969 135.941406 659.273438 137.222656 L 659.257812 138.585938 L 659.238281 139.617188 L 657.550781 139.054688 C 657.15625 138.003906 657.15625 138.003906 656.847656 136.625 C 655.539062 131.851562 652.867188 127.273438 649.507812 123.621094 C 645.398438 119.824219 640.660156 117.132812 635.292969 115.554688 C 628.847656 114.148438 621.660156 114.253906 615.296875 115.953125 C 610.78125 117.554688 606.808594 120.398438 603.515625 123.855469 C 600.113281 128.019531 597.664062 133.1875 596.761719 138.492188 C 596.171875 144.816406 596.105469 151.140625 596.125 157.488281 L 596.128906 158.882812 C 596.144531 166.265625 596.230469 173.648438 596.378906 181.03125 C 596.398438 182.089844 596.417969 183.148438 596.433594 184.203125 C 596.546875 190.621094 596.933594 196.871094 597.886719 203.222656 L 595.632812 203.222656 C 592.515625 199.363281 590.59375 194.496094 589.441406 189.714844 C 588.355469 182.625 588.140625 175.582031 588.148438 168.421875 L 588.140625 165.308594 C 588.136719 163.152344 588.136719 160.996094 588.140625 158.839844 C 588.140625 156.097656 588.132812 153.359375 588.121094 150.621094 C 588.109375 148.484375 588.109375 146.34375 588.113281 144.207031 C 588.113281 143.199219 588.109375 142.1875 588.105469 141.179688 C 588.0625 132.558594 588.699219 124.324219 592.820312 116.539062 C 596.597656 110.464844 601.171875 105.589844 607.472656 102.148438 C 609.875 100.988281 612.167969 100.203125 614.773438 99.652344 L 616.496094 99.265625 C 624.910156 97.707031 632.820312 98.851562 640.484375 102.550781 " fill-opacity="1" fill-rule="nonzero"/><path fill="#b85c15" d="M 493.191406 91.210938 L 506.699219 91.210938 L 506.699219 160.441406 L 493.191406 160.441406 Z M 493.191406 91.210938 " fill-opacity="1" fill-rule="nonzero"/><path fill="#1f2633" d="M 409.886719 123.292969 C 413.984375 123.28125 418.085938 123.269531 422.183594 123.265625 C 424.089844 123.261719 425.992188 123.257812 427.894531 123.25 C 430.082031 123.242188 432.269531 123.242188 434.457031 123.238281 L 436.535156 123.230469 L 438.449219 123.230469 L 440.140625 123.226562 L 441.40625 123.292969 L 441.96875 123.855469 C 442.019531 125.144531 442.027344 126.4375 442.023438 127.726562 L 442.019531 128.898438 C 442.015625 130.136719 442.011719 131.378906 442.003906 132.617188 C 442 133.453125 442 134.292969 441.996094 135.128906 C 441.988281 137.1875 441.980469 139.246094 441.96875 141.304688 L 440.84375 141.304688 L 440.28125 143.558594 C 437.425781 143.4375 434.570312 143.308594 431.714844 143.167969 C 430.746094 143.121094 429.773438 143.078125 428.800781 143.039062 C 427.40625 142.980469 426.007812 142.914062 424.613281 142.84375 L 423.296875 142.792969 C 422.066406 142.726562 422.066406 142.726562 420.015625 142.429688 C 418.015625 141.027344 417.238281 138.683594 416.21875 136.519531 C 414.566406 133.101562 412.761719 129.925781 410.589844 126.800781 C 409.886719 125.542969 409.886719 125.542969 409.886719 123.292969 " fill-opacity="1" fill-rule="nonzero"/></svg>